#Comment line ignore any data following # character 
#Hierarchical Translation and Rotation (.htr) file 
[Header]	
#Header keywords are followed by a single value 
FileType HTR		#Single word string
DataType HTRS		#Translation followed by rotation and scale data
FileVersion 1		#integer
NumSegments 84		#integer
NumFrames 2		#integer
DataFrameRate 30		#integer, data frame rate in this file
EulerRotationOrder ZYX
CalibrationUnits mm
RotationUnits Degrees
GlobalAxisofGravity Y
BoneLengthAxis Y
ScaleFactor 1.00
[SegmentNames&Hierarchy]
#CHILD	PARENT
MASTER GLOBAL
root MASTER
chest root
L_mid_tent01 root
R_mid_tent01 root
spine01 root
Bip01_Neck chest
L_humerus chest
R_humerus chest
weapon_bone chest
Bip01_Head Bip01_Neck
eye_left_bone Bip01_Head
eye_right_bone Bip01_Head
L_forearm L_humerus
L_front_hand L_forearm
L_weapon_bone L_forearm
L_front_hand01_01 L_front_hand
L_front_hand02_01 L_front_hand
L_front_hand03_01 L_front_hand
L_front_hand01_02 L_front_hand01_01
L_front_hand02_02 L_front_hand02_01
L_front_hand03_02 L_front_hand03_01
R_forearm R_humerus
R_front_hand R_forearm
R_weapon_bone R_forearm
R_front_hand01_01 R_front_hand
R_front_hand02_01 R_front_hand
R_front_hand03_01 R_front_hand
R_front_hand01_02 R_front_hand01_01
R_front_hand02_02 R_front_hand02_01
R_front_hand03_02 R_front_hand03_01
null_rope01_connect L_mid_tent01
Rope1_Seg01 null_rope01_connect
Rope1_Seg02 Rope1_Seg01
Rope1_Seg03 Rope1_Seg02
Rope1_Seg04 Rope1_Seg03
Rope1_Seg05 Rope1_Seg04
Rope1_Seg06 Rope1_Seg05
Rope1_Seg07 Rope1_Seg06
Rope1_Seg09 Rope1_Seg07
L_mid_hand01 Rope1_Seg09
L_mid_hand02 Rope1_Seg09
L_mid_hand03 Rope1_Seg09
null_rope02_connect R_mid_tent01
Rope2_Seg01 null_rope02_connect
Rope2_Seg02 Rope2_Seg01
Rope2_Seg03 Rope2_Seg02
Rope2_Seg04 Rope2_Seg03
Rope2_Seg05 Rope2_Seg04
Rope2_Seg06 Rope2_Seg05
Rope2_Seg07 Rope2_Seg06
Rope2_Seg09 Rope2_Seg07
R_mid_hand01 Rope2_Seg09
R_mid_hand02 Rope2_Seg09
R_mid_hand03 Rope2_Seg09
spine02 spine01
spine03 spine02
pelvis spine03
null_rope03_connect pelvis
null_rope04_connect pelvis
Rope3_Seg01 null_rope03_connect
Rope3_Seg02 Rope3_Seg01
Rope3_Seg03 Rope3_Seg02
Rope3_Seg04 Rope3_Seg03
Rope3_Seg05 Rope3_Seg04
Rope3_Seg06 Rope3_Seg05
Rope3_Seg07 Rope3_Seg06
Rope3_Seg08 Rope3_Seg07
Rope3_Seg09 Rope3_Seg08
R_rear_hand01 Rope3_Seg09
R_rear_hand02 Rope3_Seg09
R_rear_hand03 Rope3_Seg09
Rope4_Seg01 null_rope04_connect
Rope4_Seg02 Rope4_Seg01
Rope4_Seg03 Rope4_Seg02
Rope4_Seg04 Rope4_Seg03
Rope4_Seg05 Rope4_Seg04
Rope4_Seg06 Rope4_Seg05
Rope4_Seg07 Rope4_Seg06
Rope4_Seg08 Rope4_Seg07
Rope4_Seg09 Rope4_Seg08
L_rear_hand01 Rope4_Seg09
L_rear_hand02 Rope4_Seg09
L_rear_hand03 Rope4_Seg09
[BasePosition]
#SegmentName Tx, Ty, Tz, Rx, Ry, Rz, BoneLength
MASTER 0.000000 0.000000 0.000000 -90.000000 0.000000 0.000000 10.000000 
root 0.000000 0.000000 0.000000 0.000000 0.000000 0.000000 10.000000 
chest 0.000000 0.000000 0.000000 0.000000 0.000000 0.000000 10.000000 
L_mid_tent01 0.000000 0.000000 0.000000 0.000000 0.000000 0.000000 10.000000 
R_mid_tent01 0.000000 0.000000 0.000000 0.000000 0.000000 0.000000 10.000000 
spine01 0.000000 0.000000 0.000000 0.000000 0.000000 0.000000 10.000000 
Bip01_Neck 0.000000 0.000000 0.000000 0.000000 0.000000 0.000000 10.000000 
L_humerus 0.000000 0.000000 0.000000 0.000000 0.000000 0.000000 10.000000 
R_humerus 0.000000 0.000000 0.000000 0.000000 0.000000 0.000000 10.000000 
weapon_bone 0.000000 0.000000 0.000000 0.000000 0.000000 0.000000 10.000000 
Bip01_Head 0.000000 0.000000 0.000000 0.000000 0.000000 0.000000 10.000000 
eye_left_bone 0.000000 0.000000 0.000000 0.000000 0.000000 0.000000 10.000000 
eye_right_bone 0.000000 0.000000 0.000000 0.000000 0.000000 0.000000 10.000000 
L_forearm 0.000000 0.000000 0.000000 0.000000 0.000000 0.000000 10.000000 
L_front_hand 0.000000 0.000000 0.000000 0.000000 0.000000 0.000000 10.000000 
L_weapon_bone 0.000000 0.000000 0.000000 0.000000 0.000000 0.000000 10.000000 
L_front_hand01_01 0.000000 0.000000 0.000000 0.000000 0.000000 0.000000 10.000000 
L_front_hand02_01 0.000000 0.000000 0.000000 0.000000 0.000000 0.000000 10.000000 
L_front_hand03_01 0.000000 0.000000 0.000000 0.000000 0.000000 0.000000 10.000000 
L_front_hand01_02 0.000000 0.000000 0.000000 0.000000 0.000000 0.000000 10.000000 
L_front_hand02_02 0.000000 0.000000 0.000000 0.000000 0.000000 0.000000 10.000000 
L_front_hand03_02 0.000000 0.000000 0.000000 0.000000 0.000000 0.000000 10.000000 
R_forearm 0.000000 0.000000 0.000000 0.000000 0.000000 0.000000 10.000000 
R_front_hand 0.000000 0.000000 0.000000 0.000000 0.000000 0.000000 10.000000 
R_weapon_bone 0.000000 0.000000 0.000000 0.000000 0.000000 0.000000 10.000000 
R_front_hand01_01 0.000000 0.000000 0.000000 0.000000 0.000000 0.000000 10.000000 
R_front_hand02_01 0.000000 0.000000 0.000000 0.000000 0.000000 0.000000 10.000000 
R_front_hand03_01 0.000000 0.000000 0.000000 0.000000 0.000000 0.000000 10.000000 
R_front_hand01_02 0.000000 0.000000 0.000000 0.000000 0.000000 0.000000 10.000000 
R_front_hand02_02 0.000000 0.000000 0.000000 0.000000 0.000000 0.000000 10.000000 
R_front_hand03_02 0.000000 0.000000 0.000000 0.000000 0.000000 0.000000 10.000000 
null_rope01_connect 0.000000 0.000000 0.000000 0.000000 0.000000 0.000000 10.000000 
Rope1_Seg01 0.000000 0.000000 0.000000 0.000000 0.000000 0.000000 10.000000 
Rope1_Seg02 0.000000 0.000000 0.000000 0.000000 0.000000 0.000000 10.000000 
Rope1_Seg03 0.000000 0.000000 0.000000 0.000000 0.000000 0.000000 10.000000 
Rope1_Seg04 0.000000 0.000000 0.000000 0.000000 0.000000 0.000000 10.000000 
Rope1_Seg05 0.000000 0.000000 0.000000 0.000000 0.000000 0.000000 10.000000 
Rope1_Seg06 0.000000 0.000000 0.000000 0.000000 0.000000 0.000000 10.000000 
Rope1_Seg07 0.000000 0.000000 0.000000 0.000000 0.000000 0.000000 10.000000 
Rope1_Seg09 0.000000 0.000000 0.000000 0.000000 0.000000 0.000000 10.000000 
L_mid_hand01 0.000000 0.000000 0.000000 0.000000 0.000000 0.000000 10.000000 
L_mid_hand02 0.000000 0.000000 0.000000 0.000000 0.000000 0.000000 10.000000 
L_mid_hand03 0.000000 0.000000 0.000000 0.000000 0.000000 0.000000 10.000000 
null_rope02_connect 0.000000 0.000000 0.000000 0.000000 0.000000 0.000000 10.000000 
Rope2_Seg01 0.000000 0.000000 0.000000 0.000000 0.000000 0.000000 10.000000 
Rope2_Seg02 0.000000 0.000000 0.000000 0.000000 0.000000 0.000000 10.000000 
Rope2_Seg03 0.000000 0.000000 0.000000 0.000000 0.000000 0.000000 10.000000 
Rope2_Seg04 0.000000 0.000000 0.000000 0.000000 0.000000 0.000000 10.000000 
Rope2_Seg05 0.000000 0.000000 0.000000 0.000000 0.000000 0.000000 10.000000 
Rope2_Seg06 0.000000 0.000000 0.000000 0.000000 0.000000 0.000000 10.000000 
Rope2_Seg07 0.000000 0.000000 0.000000 0.000000 0.000000 0.000000 10.000000 
Rope2_Seg09 0.000000 0.000000 0.000000 0.000000 0.000000 0.000000 10.000000 
R_mid_hand01 0.000000 0.000000 0.000000 0.000000 0.000000 0.000000 10.000000 
R_mid_hand02 0.000000 0.000000 0.000000 0.000000 0.000000 0.000000 10.000000 
R_mid_hand03 0.000000 0.000000 0.000000 0.000000 0.000000 0.000000 10.000000 
spine02 0.000000 0.000000 0.000000 0.000000 0.000000 0.000000 10.000000 
spine03 0.000000 0.000000 0.000000 0.000000 0.000000 0.000000 10.000000 
pelvis 0.000000 0.000000 0.000000 0.000000 0.000000 0.000000 10.000000 
null_rope03_connect 0.000000 0.000000 0.000000 0.000000 0.000000 0.000000 10.000000 
null_rope04_connect 0.000000 0.000000 0.000000 0.000000 0.000000 0.000000 10.000000 
Rope3_Seg01 0.000000 0.000000 0.000000 0.000000 0.000000 0.000000 10.000000 
Rope3_Seg02 0.000000 0.000000 0.000000 0.000000 0.000000 0.000000 10.000000 
Rope3_Seg03 0.000000 0.000000 0.000000 0.000000 0.000000 0.000000 10.000000 
Rope3_Seg04 0.000000 0.000000 0.000000 0.000000 0.000000 0.000000 10.000000 
Rope3_Seg05 0.000000 0.000000 0.000000 0.000000 0.000000 0.000000 10.000000 
Rope3_Seg06 0.000000 0.000000 0.000000 0.000000 0.000000 0.000000 10.000000 
Rope3_Seg07 0.000000 0.000000 0.000000 0.000000 0.000000 0.000000 10.000000 
Rope3_Seg08 0.000000 0.000000 0.000000 0.000000 0.000000 0.000000 10.000000 
Rope3_Seg09 0.000000 0.000000 0.000000 0.000000 0.000000 0.000000 10.000000 
R_rear_hand01 0.000000 0.000000 0.000000 0.000000 0.000000 0.000000 10.000000 
R_rear_hand02 0.000000 0.000000 0.000000 0.000000 0.000000 0.000000 10.000000 
R_rear_hand03 0.000000 0.000000 0.000000 0.000000 0.000000 0.000000 10.000000 
Rope4_Seg01 0.000000 0.000000 0.000000 0.000000 0.000000 0.000000 10.000000 
Rope4_Seg02 0.000000 0.000000 0.000000 0.000000 0.000000 0.000000 10.000000 
Rope4_Seg03 0.000000 0.000000 0.000000 0.000000 0.000000 0.000000 10.000000 
Rope4_Seg04 0.000000 0.000000 0.000000 0.000000 0.000000 0.000000 10.000000 
Rope4_Seg05 0.000000 0.000000 0.000000 0.000000 0.000000 0.000000 10.000000 
Rope4_Seg06 0.000000 0.000000 0.000000 0.000000 0.000000 0.000000 10.000000 
Rope4_Seg07 0.000000 0.000000 0.000000 0.000000 0.000000 0.000000 10.000000 
Rope4_Seg08 0.000000 0.000000 0.000000 0.000000 0.000000 0.000000 10.000000 
Rope4_Seg09 0.000000 0.000000 0.000000 0.000000 0.000000 0.000000 10.000000 
L_rear_hand01 0.000000 0.000000 0.000000 0.000000 0.000000 0.000000 10.000000 
L_rear_hand02 0.000000 0.000000 0.000000 0.000000 0.000000 0.000000 10.000000 
L_rear_hand03 0.000000 0.000000 0.000000 0.000000 0.000000 0.000000 10.000000 
#Beginning of Data. Separated by tabs
#Fr	Tx	Ty	Tz	Rx	Ry	Rz	SF
[MASTER]
20 0.000000 0.000000 0.000000 0.001660 0.001660 0.001660 0.000000
21 0.000000 0.000000 0.000000 0.001660 0.001660 0.001660 0.000000
[root]
20 -47.334473 -62.868378 1199.984619 -91.589119 -28.307674 -90.266357 1202.562378
21 -56.809040 -62.903374 1179.216797 -91.575912 -28.310062 -90.306000 1182.258911
[chest]
20 -84.512650 -34.090519 0.000000 -5.681106 1.814152 179.868698 91.129311
21 -84.512650 -34.090519 0.000000 -5.280396 1.173741 179.721420 91.129311
[L_mid_tent01]
20 27.299519 22.177431 -249.917999 -11.726656 41.127594 35.237629 252.380875
21 27.299519 22.177423 -249.918015 -13.958388 43.364578 31.106165 252.380890
[R_mid_tent01]
20 23.228794 24.509907 226.238495 -170.016449 -38.789001 33.308968 228.744751
21 23.228794 24.509907 226.238495 -169.491837 -41.561478 31.023167 228.744751
[spine01]
20 -0.361383 -0.195265 0.000000 0.227926 0.413773 12.978118 0.410763
21 -0.361383 -0.195265 0.000000 0.180109 0.407610 12.841832 0.410763
[Bip01_Neck]
20 165.484543 71.581718 0.000119 175.896118 1.177290 24.871183 180.302734
21 165.484543 71.581718 0.000119 175.896118 1.177290 24.871183 180.302734
[L_humerus]
20 -13.983130 -135.272980 -120.471481 -139.676025 -0.958174 -167.921463 181.680161
21 -13.983130 -135.272980 -120.471481 -118.751907 -0.963947 -170.917007 181.680161
[R_humerus]
20 -13.983309 -135.273102 125.287651 144.289322 6.561869 -165.122864 184.909012
21 -13.983309 -135.273102 125.287651 125.682121 6.441469 -170.807495 184.909012
[weapon_bone]
20 235.964890 -300.705902 0.000000 0.000000 -89.951546 -128.212341 382.234833
21 235.964890 -300.705902 0.000000 0.000000 -89.951546 -128.212341 382.234833
[Bip01_Head]
20 247.751663 146.413116 3.424339 0.142515 4.136145 -73.146416 287.800995
21 246.361832 149.838867 6.109695 0.375062 3.945305 -73.578346 288.414917
[eye_left_bone]
20 -24.626970 125.451866 -64.772606 0.000000 -90.000000 -99.840431 143.318359
21 -24.626970 125.451866 -64.772606 0.000000 -90.000000 -99.840431 143.318359
[eye_right_bone]
20 -24.626970 125.451866 64.327362 0.000000 -89.960434 80.159386 143.117676
21 -24.626970 125.451866 64.327362 0.000000 -89.960434 80.159386 143.117676
[L_forearm]
20 322.776093 0.000000 -0.000119 0.000158 0.002342 -82.300301 322.776093
21 322.776093 0.000000 -0.000119 0.000150 0.002342 -82.694992 322.776093
[L_front_hand]
20 241.149185 -0.042021 -3.300071 -178.601028 -1.781303 -29.540617 241.171753
21 241.149185 -0.042021 -3.300071 -178.492706 -1.695783 -33.039425 241.171753
[L_weapon_bone]
20 156.183838 0.000000 0.000000 0.001978 0.001264 24.845156 156.183838
21 156.183838 0.000000 0.000000 0.001950 0.001306 22.399624 156.183838
[L_front_hand01_01]
20 86.095154 20.947098 -0.655860 0.405585 -0.442306 -4.620490 88.609184
21 86.095154 20.947098 -0.655860 0.405585 -0.442306 -4.620490 88.609184
[L_front_hand02_01]
20 86.935165 -11.437475 24.513514 116.959450 3.630817 1.495453 91.046425
21 86.935165 -11.437475 24.513514 116.959450 3.630817 1.495453 91.046425
[L_front_hand03_01]
20 86.637497 -14.123976 -20.424902 -118.420097 -4.656303 -0.152527 90.126129
21 86.637497 -14.123976 -20.424902 -118.420097 -4.656303 -0.152527 90.126129
[L_front_hand01_02]
20 71.020905 -0.000179 0.000030 0.001534 0.001777 -8.378850 71.020905
21 71.020905 -0.000179 0.000030 0.001534 0.001777 -8.378850 71.020905
[L_front_hand02_02]
20 71.020927 -0.000119 0.000060 0.001534 0.001777 -8.378850 71.020927
21 71.020927 -0.000119 0.000060 0.001534 0.001777 -8.378850 71.020927
[L_front_hand03_02]
20 71.020905 -0.000060 0.000060 0.001534 0.001777 -8.378850 71.020905
21 71.020905 -0.000060 0.000060 0.001534 0.001777 -8.378850 71.020905
[R_forearm]
20 322.776428 -0.000060 0.000030 0.203614 -0.060268 -74.699211 322.776428
21 322.776428 -0.000060 0.000030 0.203719 -0.059914 -74.898438 322.776428
[R_front_hand]
20 238.847015 -0.006795 2.210259 -1.625026 0.587205 -58.804016 238.857239
21 238.847015 -0.006795 2.210259 -1.678017 0.413206 -64.815933 238.857239
[R_weapon_bone]
20 155.664093 0.002503 -0.000030 0.002987 0.002151 -125.111763 155.664078
21 155.664093 0.002503 -0.000030 0.003043 0.002071 -122.092567 155.664078
[R_front_hand01_01]
20 87.624611 14.231146 22.918642 -116.960213 3.496675 -1.324139 91.683487
21 87.624611 14.231146 22.918642 -116.960213 3.496675 -1.324139 91.683487
[R_front_hand02_01]
20 89.356956 14.367283 -19.491137 118.419647 -4.257089 0.609827 92.579636
21 89.356956 14.367283 -19.491137 118.419647 -4.257089 0.609827 92.579636
[R_front_hand03_01]
20 87.286232 -22.307278 -0.143439 -0.387970 -0.231462 4.232001 90.091743
21 87.286232 -22.307278 -0.143439 -0.387970 -0.231462 4.232001 90.091743
[R_front_hand01_02]
20 71.020905 0.000060 0.000119 0.001777 0.001534 8.377220 71.020905
21 71.020905 0.000060 0.000119 0.001777 0.001534 8.377220 71.020905
[R_front_hand02_02]
20 71.020844 -0.000030 -0.000119 0.001777 0.001534 8.377220 71.020836
21 71.020844 -0.000030 -0.000119 0.001777 0.001534 8.377220 71.020836
[R_front_hand03_02]
20 71.020905 0.000000 0.000030 0.001777 0.001534 8.377220 71.020905
21 71.020905 0.000000 0.000030 0.001777 0.001534 8.377220 71.020905
[null_rope01_connect]
20 328.732483 0.000000 -0.000238 -115.333755 -46.013786 -165.673676 328.732483
21 328.732483 0.000000 -0.000238 -113.534859 -43.362366 -164.475204 328.732483
[Rope1_Seg01]
20 0.000000 0.000000 0.000000 -4.903694 11.911498 -100.517860 0.000000
21 0.000000 0.000000 0.000000 13.745842 -3.314160 -99.607552 0.000000
[Rope1_Seg02]
20 139.999863 -0.000179 0.000000 -42.656261 16.268559 5.996634 139.999863
21 139.999863 -0.000179 0.000000 -15.207633 11.629822 -1.681482 139.999863
[Rope1_Seg03]
20 139.999924 0.000060 -0.000060 -12.979242 4.465915 2.906115 139.999924
21 139.999924 0.000060 -0.000060 14.904216 -5.506037 -4.934519 139.999924
[Rope1_Seg04]
20 139.999924 -0.000060 -0.000119 -28.133484 7.826496 66.621498 139.999924
21 139.999924 -0.000060 -0.000119 -77.724602 37.811012 3.898854 139.999924
[Rope1_Seg05]
20 139.999832 0.000119 -0.000060 -2.484435 -13.870498 30.528036 139.999832
21 139.999832 0.000119 -0.000060 -21.471661 4.577741 78.004395 139.999832
[Rope1_Seg06]
20 139.999954 0.000119 -0.000060 0.720622 -2.107591 4.783078 139.999954
21 139.999954 0.000119 -0.000060 0.500129 -2.773212 7.663424 139.999954
[Rope1_Seg07]
20 139.999985 0.000060 0.000000 0.479310 -1.032562 2.440819 139.999985
21 139.999985 0.000060 0.000000 0.391592 -1.107553 3.168631 139.999985
[Rope1_Seg09]
20 121.602913 0.000119 -0.000089 -89.793175 -1.359789 0.847147 121.602913
21 121.602913 0.000119 -0.000089 -89.793175 -1.359789 0.847147 121.602913
[L_mid_hand01]
20 103.859421 1.038730 8.195221 105.143661 -18.377056 -5.405620 104.187431
21 103.859421 1.038730 8.195221 105.318970 -20.241947 -5.944750 104.187431
[L_mid_hand02]
20 105.572853 -4.139662 -10.864139 -138.263901 17.178423 -17.722975 106.211075
21 105.572853 -4.139662 -10.864139 -138.730484 18.460613 -19.249084 106.211075
[L_mid_hand03]
20 104.641464 17.579376 -3.913581 -17.876320 5.806674 21.318083 106.179977
21 104.641464 17.579376 -3.913581 -17.677298 6.395949 23.170801 106.179977
[null_rope02_connect]
20 328.732849 0.000179 -0.000119 -109.510643 51.580441 -10.644906 328.732849
21 328.732849 0.000179 -0.000119 -107.230484 48.797058 -10.133396 328.732849
[Rope2_Seg01]
20 0.000039 0.000098 0.000049 89.855812 15.039832 -51.888092 0.000116
21 0.000043 0.000099 0.000045 66.738258 0.674965 -60.169186 0.000117
[Rope2_Seg02]
20 139.999741 -0.000060 -0.000119 71.630394 -6.686373 -20.796291 139.999756
21 139.999741 -0.000060 -0.000119 66.377861 11.396333 -22.165150 139.999756
[Rope2_Seg03]
20 140.000107 0.000030 0.000000 3.298528 -2.496602 -0.535436 140.000107
21 140.000107 0.000030 0.000000 11.715360 -0.239723 -3.269850 140.000107
[Rope2_Seg04]
20 139.999802 0.000000 -0.000060 4.621523 -8.868450 0.765096 139.999802
21 139.999802 0.000000 -0.000060 11.758783 -8.150850 -1.392335 139.999802
[Rope2_Seg05]
20 139.999985 -0.000060 0.000119 3.601941 -21.535023 4.304411 139.999985
21 139.999985 -0.000060 0.000119 6.700922 -18.935738 2.590086 139.999985
[Rope2_Seg06]
20 139.999893 -0.000030 -0.000119 0.354999 -20.003298 5.661552 139.999893
21 139.999893 -0.000030 -0.000119 1.567711 -18.108734 4.797079 139.999893
[Rope2_Seg07]
20 139.999893 0.000060 -0.000060 -0.105544 -10.488961 3.115787 139.999893
21 139.999893 0.000060 -0.000060 0.407144 -10.248336 2.900122 139.999893
[Rope2_Seg09]
20 121.338966 0.000089 -0.000060 33.793236 -1.359788 -0.847141 121.338966
21 121.338966 0.000089 -0.000060 33.793236 -1.359788 -0.847141 121.338966
[R_mid_hand01]
20 104.680779 11.144459 -10.335981 -45.036015 16.896826 18.918304 105.778534
21 104.680779 11.144459 -10.335981 -44.664528 18.070995 20.156975 105.778534
[R_mid_hand02]
20 104.070427 2.443552 8.231699 74.610535 -20.835535 6.127296 104.424065
21 104.070427 2.443552 8.231699 74.434563 -22.435429 6.604714 104.424065
[R_mid_hand03]
20 106.028137 -11.221827 -5.996406 -166.009781 7.447360 -24.778097 106.788818
21 106.028137 -11.221827 -5.996406 -166.228409 7.848495 -26.405989 106.788818
[spine02]
20 129.756927 0.001550 0.000119 -0.147628 -4.149833 -5.767568 129.756927
21 129.756927 0.001550 0.000119 -0.138417 -4.133204 -5.885983 129.756927
[spine03]
20 78.821060 0.051112 -2.875475 1.649767 0.821334 10.069936 78.873512
21 78.841972 0.047485 -2.671409 1.699104 0.542419 11.086848 78.887230
[pelvis]
20 169.435242 0.051022 0.000000 0.011513 1.444213 -3.045408 169.435257
21 169.435242 0.051022 0.000000 0.011653 1.560545 -3.141111 169.435257
[null_rope03_connect]
20 -1.257226 -2.466202 137.391083 134.404114 -89.189156 -30.381594 137.418976
21 -1.257226 -2.466202 137.391083 132.190170 -89.114418 -28.857506 137.418976
[null_rope04_connect]
20 -1.259640 -2.480268 -137.844437 134.404114 -89.189156 -30.381594 137.872513
21 -1.259640 -2.480268 -137.844437 132.190170 -89.114418 -28.857506 137.872513
[Rope3_Seg01]
20 0.000000 0.000000 0.000000 -134.984055 -12.863997 -53.212574 0.000000
21 0.000000 0.000000 0.000000 -139.451340 -22.243853 -54.364616 0.000000
[Rope3_Seg02]
20 139.999924 -0.000119 0.000060 0.405796 -3.250031 -4.295565 139.999924
21 139.999924 -0.000119 0.000060 1.722981 -3.975560 -0.686700 139.999924
[Rope3_Seg03]
20 139.999924 -0.000119 0.000119 0.789402 -4.874629 -6.386403 139.999924
21 139.999924 -0.000119 0.000119 2.641303 -5.325746 -0.755110 139.999924
[Rope3_Seg04]
20 139.999924 0.000119 0.000000 1.018268 -6.770896 -9.681662 139.999924
21 139.999924 0.000119 0.000000 4.086467 -7.095507 -0.812091 139.999924
[Rope3_Seg05]
20 139.999924 -0.000238 0.000060 8.626806 -12.759568 -15.521057 139.999924
21 139.999924 -0.000238 0.000060 7.305069 -9.878495 -0.531003 139.999924
[Rope3_Seg06]
20 139.999893 -0.000119 -0.000060 143.042419 -24.058220 -20.374121 139.999893
21 139.999893 -0.000119 -0.000060 16.159491 -16.116282 2.774919 139.999893
[Rope3_Seg07]
20 139.999771 0.000060 -0.000119 15.109849 3.593875 21.652542 139.999771
21 139.999771 0.000060 -0.000119 19.452629 -16.404644 8.817382 139.999771
[Rope3_Seg08]
20 139.999985 -0.000060 0.000000 2.756705 4.035717 9.127388 139.999985
21 139.999985 -0.000060 0.000000 11.577741 -8.485694 9.311720 139.999985
[Rope3_Seg09]
20 90.185997 -0.000179 -0.000060 89.793228 -1.359877 -0.847183 90.185997
21 90.185997 -0.000179 -0.000060 89.793228 -1.359877 -0.847183 90.185997
[R_rear_hand01]
20 103.366196 -6.073594 -10.757982 -158.501556 12.396359 -17.993113 104.101845
21 103.366196 -6.073594 -10.757982 -159.090073 13.386786 -20.616554 104.101845
[R_rear_hand02]
20 100.509819 12.039542 -7.992327 -37.124035 11.994593 18.373814 101.543350
21 100.509819 12.039542 -7.992327 -36.626534 13.642225 20.623665 101.543350
[R_rear_hand03]
20 101.539970 5.215704 5.435467 83.998283 -18.547699 5.781802 101.819031
21 101.539970 5.215704 5.435467 83.895897 -21.276398 6.086509 101.819031
[Rope4_Seg01]
20 0.000010 0.000038 -0.000114 47.182343 -16.350838 -102.000092 0.000121
21 0.000010 0.000038 -0.000114 47.864994 -24.919790 -101.760651 0.000121
[Rope4_Seg02]
20 139.999985 0.000060 0.000119 0.355644 -7.331320 -2.816497 139.999985
21 139.999985 0.000060 0.000119 -0.106283 -4.051426 -4.226749 139.999985
[Rope4_Seg03]
20 139.999924 0.000000 -0.000238 0.732930 -9.556187 -3.638525 139.999924
21 139.999924 0.000000 -0.000238 -0.396084 -5.327849 -5.616495 139.999924
[Rope4_Seg04]
20 139.999985 0.000000 0.000119 2.240015 -11.488247 -1.889226 139.999985
21 139.999985 0.000000 0.000119 0.144103 -9.246224 -5.688644 139.999985
[Rope4_Seg05]
20 139.999802 -0.000060 -0.000119 1.479200 -11.826822 -5.036078 139.999802
21 139.999802 -0.000060 -0.000119 -1.938965 -8.516817 -8.248950 139.999802
[Rope4_Seg06]
20 139.999924 0.000000 0.000060 -14.917529 -20.329157 -18.854883 139.999924
21 139.999924 0.000000 0.000060 -21.684206 2.660415 -22.477118 139.999924
[Rope4_Seg07]
20 139.999802 0.000000 0.000000 -109.961914 -15.086406 -25.833355 139.999802
21 139.999802 0.000000 0.000000 -26.494732 13.364086 -24.123272 139.999802
[Rope4_Seg08]
20 139.999924 0.000000 0.000119 -18.228363 14.662396 -2.575214 139.999924
21 139.999924 0.000000 0.000119 -11.587921 11.429322 -9.992934 139.999924
[Rope4_Seg09]
20 90.185791 0.000060 0.000060 -135.617828 2.228885 0.850567 90.185791
21 90.185791 0.000060 0.000060 -135.617828 2.228885 0.850567 90.185791
[L_rear_hand01]
20 101.696655 -8.392275 -7.654577 -37.550831 -10.352249 163.821823 102.329041
21 101.696655 -8.392275 -7.654577 -37.097984 -12.101351 161.488007 102.329041
[L_rear_hand02]
20 102.726799 -1.568258 5.773216 84.085754 15.850829 174.516083 102.900848
21 102.726799 -1.568258 5.773216 83.993034 18.721008 174.203247 102.900848
[L_rear_hand03]
20 104.552910 9.721220 -10.420293 -157.972427 -11.390801 -164.578979 105.519653
21 104.552910 9.721220 -10.420293 -158.537842 -12.454073 -161.844238 105.519653
